<mxfile host="app.diagrams.net" modified="2021-02-16T09:08:17.968Z" agent="5.0 (Windows NT 10.0; Win64; x64) AppleWebKit/537.36 (KHTML, like Gecko) Chrome/86.0.4240.111 Safari/537.36" etag="kLaHKMS8Fpp9QhsxuaF3" version="14.3.2" type="github">
  <diagram id="cbXKGUyouqyQP4_rPp7t" name="Page-1">
    <mxGraphModel dx="1038" dy="1680" grid="1" gridSize="10" guides="1" tooltips="1" connect="1" arrows="1" fold="1" page="1" pageScale="1" pageWidth="850" pageHeight="1100" math="0" shadow="0">
      <root>
        <mxCell id="0" />
        <mxCell id="1" parent="0" />
        <mxCell id="CsR06TCBEqYUJZjT40zg-1" value="Users" style="shape=umlActor;verticalLabelPosition=bottom;verticalAlign=top;html=1;outlineConnect=0;" vertex="1" parent="1">
          <mxGeometry x="130" y="160" width="30" height="30" as="geometry" />
        </mxCell>
        <mxCell id="CsR06TCBEqYUJZjT40zg-2" value="" style="shape=image;verticalLabelPosition=bottom;labelBackgroundColor=#ffffff;verticalAlign=top;aspect=fixed;imageAspect=0;image=data:image/png,iVBORw0KGgoAAAANSUhEUgAAARcAAABQCAYAAAAz+TG0AAAgAElEQVR4Ae3dBZQcxdYHcJ67u7u7u8DDXRMkuLu7P9wDBHcnEAgEh0Dc3d3d3aW+86u82q8zbzYZ2QnhbdeePj073V1169a9/ytVXbNFyEvOgZwDOQdqwIEtalBnXmXOgZwDOQdCDi65EOQcyDlQEw7k4FITtuaV5hzIOZCDSy4DOQdyDtSEAzm41ISteaU5B3IO5OCSy0DOgZwDNeFADi41YWteac6BnAM5uOQykHMg50BNOJCDS03YmleacyDnQE3AZc3atWHZ6mVh7op5YcKSCWHQ/MGh++yeof3MjqHt9Hah7fS3QvsZHUO32T3CwPmDwoQlE+O9y1cvD6vXrs5HJedAzoH/AQ40GLisDWvDyrWrwqJVi8P0ZdND7zl9QquJz4brhzcPp/Y9KxzY/fCwW6d9wo4ddg87dNgt7Npp79Cs26HhlL5nhuuG3xSenvhs6DWnT3xWHavWrApr1679H2Bx3oWcA42TAw0CLoBl1dpVYcHKhaHnnD7h6qHXh0N7HBl26LBr2PKt7eKxVbvtQ7EjXd++w67h4O5HhGuH3RB6ze4TFq1aFFauWRnUvSlLsdbQUPi3KWnK28o58E7kQNXgQukWr1ocpi6dGu4b82Bo2vXAACi2brdj2Kb9TtFL4bHs02X/sF/Xg8IB3Q6Jh8++c40n495/tdshPrtX533DnaPuCeMXTwxLVi8Ja9auqTlvhWPAbMWalXXtaRdoLl+zYr1jxZoV8fuaE5U3kHPgHcyBqsCFQvIw+s0bEC4YdHEdqGzbfuewS8e9woHdDwun9zs7NB9xa3h+8guh66xuof/cgaH/vIGh26we4blJL4SbRtwa7zmo++Fh1057Bc8CJoBz0aDLYt0xTFq7qmZsBpCzl88JoxaNCaMXjYl9AixLVy+N+aChC4aF7DFs4YgweemUTe5V1YwBecU5B2rAgYrBhULyKjrN6hpO7HNaBIQt220XtuuwS/RMbh7RInSa1SXMXD4regSUtdjBM3CPe28ZeXvMwwCYrdptF+s8tvfJoevs7tE7qkH/Y5XoenN6u3BqvzPDeQMvCsMWDI+eyYQlk8I1Q28IR/Q8JhzR89hwRK91xzG9Twh3jL4nrN4EHlWt+pzXm3Og1hyoGFyEQoPmDQlH9zqhzmPZrdPe4Yx+54aOMzuHWctnrQsx/pOt2FBHKLdQY9by2fHZk/ucHj0fICNcOqrX8aHLrG7BbJJ7G7qos/WkF8KenZtGb6vfvP5h5ZpV0YuRcEZHky7NwiE9joxAg57bRt0VaRFGLV29LNK/fM3y6O3w5syWKev6tjKCo5zUwpUL4z1ANRVAvWrt6vi96/NXLoj3qYfXpl4zcHnJOfBO4kDZ4EIRWOzxiyeEo3oeH/MkwphdOu4ZLhh4ccyTCJfcV0kxSwRkLhl8edi9U5Oo2HI45/S/IIxfPD56QZXUu6FnAMCzk54Pu3faJxzQ/ZDQd26/2M6ohWPCSX1OD9u23yk8PuGpCJiUf+F/wEMfZyybGQbPGxLGLRofZi6fGYYvGBFenfpGGLFgZOSB0IpnJhx8derr4Y1pb4YxC8eG+Svnr5sRC2sjCM9bMT+MXDg6tJ32Vnh12hsxhOw9p2/oN7d/mLB4YgS7Snm6ob7n13IO1IoDZYMLi2v9ynXDbgrbtd85zgTt0alJnCGasXxGncJUSjAFAjASxLeOvCN6LUKSk/qcFp6b1CYsWbWk0qrrfW7j4LJznCpfsHJB9FCyCd0Xp7wS9u16YDit31nhrtH3hv27HRyadG0W78erHrN7h7P7nx8T18ALYDbt2izcN/bBMGXp1AhiU5dOCy1G3hEO6HpIOLjHEeHY3ieFvbrsF3bquEes794xD8Q8UA4u9Q5hfmEz5EDZ4CIcem1a27Bf14PXze603yVcMuiK6MlkXf1q+kqJKDzl6zG7V0z+Okuqmrlp6LIxcOGZtRh1Z+g9t28YOG9QGLpgePRi0CkpDTCEhAd2PzSc1Pf0cMWQa2IOCf1n9T8vJqqP631yDKVuHH5L2KNz0zhz1mpS6xguCfn26NQ07Nv1oNBmyosxNJTH4jEJMwfPH1I1aDc0z/L6cg5sjANlgYtAZ+KSSeHcgReF7drvEvMhh/c4JvSY3bPqXEgCFIpe7aEuf6WWjYGLtTi7d24SvQgzYHIub0x/K9IJXAALL+6qodeGMYvHhdkr5kTv7s0Z7aIXs3eX/WKoJJcye/nscOWQ62JO6cQ+p4e5K+aGNpNfjGuATul7RpixbEYEUIsPzZidM+DCIGTKS86BdxoHSgYXymodCCu7c8c9o9fizGWXh6imyOEsXrUk5i+mL5sRqj0oNw+r1FcJNgYu1t9Yl3NUr+MCD+TUvmeGTjO7RABLnkvTLs3C69PaRh6tm6JfHJ4Y3zLmcfbvdkgYuXBUDKmEda0mto4rlPfsvG8EoY4zO8X/3ddzTu8weP7QcFb/8yOfbxh+c+RNNfzNn8058HZwoGRwoYASmS1G3RHzLFu32yEc0O3QMGbR2KoWlCXQEvbcPLJFuHnkbXFK2rR0JYcp8DtH3xP6zO0bZ1lKYerGwMWM1Z1j7g0D5w8OIxaOjLNI81bMqwMXYQ6PxjqeVIDI4+OfXJck7nZIGLVwdPRIfC95bE3PHp2bxMTu2MXjwoUDLwnAhld09oALQrPuhwWeTP+5A2LCN9Wbn3MOvFM4UDK4sMbTlk2P6z3++da20WW/dthN0RpX01ngYir34XGPR2/ItK/ZISFBuUdaGWzV71MTWpW8NmZj4CIEfHby83WrhdHsT+G5mMK2CLDrrO51rDAV/eq01+IqZCuReSemloVGt464PYZFR/Y8Lr4ywVPjochjSZTfPfq+0GbyS3HmKb5jVVdr/iHnwDuHAyWDi3UYciusLXCRxBQiVZvEXQcuS8NDYx+LHtHhPY+Nq3YlUG8ddUe4ZdTtMZnKY/K/c/rs/3S4v/nIFmHvzvvFHMiTE56Oa0RKGYrSwKVNBMHC+uoDF3wxXX9MrxMjPWf2Py+8Ou31+DInsPGKg5DSVLVFe8f2Oins0+WAcP/Yh2MO5vWpbYOpaFPdS1YvLWw2/z/nwGbPgTLAZVV4fHzLOD0KXLxkyJMpNa9RHycKweXaYTfGhKjFYzOWz4wzRhafWStiytb6EN+z9kKTqcumxf/lWFw7tveJMflaKrhoXx9aTXwuThc3635o6DuvfwTNMYvGxdkaCds2U14Ky9Ys/69urJuKPigc2fPY0HN2r7rrqd4XJr8UDu95TKybRwWUeToXD7oshlcWyHnlwKyQUGlduNS07r4z+50bt6xQX15yDryTOFAyuEjm3jj85hiyAJez+18QZzpY/WpKIbgID4QO1pTITXgZ0gxK60ltwhPjn4rv9Dw+oWVMivIMbht5VzClK+SQzzi+z8nRuyoFXNAOWCj4A2MfjqHKYT2OibkV1+asmBtenPJyeHDsI2HIgmFFvTRex2Pjn4weyaQlk9djxbq+LYv5n4fGPRpzSLeNvDP2a9zi8TGkRPezk54Lh3Q/Mpze75xgqlqu6YohV4cDux0Wduqwe7hn9P0xUZwDzHrszf/ZzDlQFrhcMujyuGIWuFw55JoIArUAF56KKdqbht8SF6BNXjI5NB/eIrY5dtG4cNmQq+I+MZKrwgn7wXhGiFEquKAbGFlD4nUFC9e8bHnugAtjOEORAY98EC+qvu0fLP9Xz5JVS+Mq2sLxtieNZxeuXBRXHs9ZPie+GiDMVL8XJoVOZqO83wR0TPfbYOvSwVdEMG8x8s562y9sL/8/58DmwoGywOWcARfFtS3A5fqhN8Yp6NqAy4IILtcPax6tOWVj0S8bfGUYtWh0VLprht0QF7N5t8ln3k454EKxhVYn9z09TvlK2srXCP2EWJuioEG4x2sBbE9PeDbwfmw10XrS89FzkYd5bnKbugTypqArbyPnQENwoCxwuXTwlXWey2WDr4o5jtqAy8KYT2k+okU4d8BFMe9yy4jb4isGLPvlQ6+OYGN69/jep4QbhjcPC1eV77nI0WjjzP7nhgsGXhKemNAyglq1SepSB2Zd2LQ0hlRA0nS2/W6c5WlO63d2eGTc4zEHVWqd+X05BzYXDpQBLqvCzSNui9PDPBf5AYvVqt12IClYmi2yMlWiVs7FojQLzlh3L/xJnk5bNi28MOXluOLVniryHWZh1r1BvCgc1+ekknIu2vWOkCX6wit18Xw29daawNkKXDNxrSe3iQDXcmKr8MrU12Lux+JCHk5ecg680zhQMriw5va59fYzcGFhJy2ZUrXgF4LL1cOuj7M/wEVC1RvS6bOl87yNOSvmBLkLn33nPp4LsLPXiqX6pSR0DZb2Kbizv7ejJBqAyP8f616DeLtoejv4kLf5v8WBksGF0A+YNyi+rQtcTJnyJizyqqZQHh5D8ly8UWzTJqGK44z+5xT9nK5nz95M9kqCzb9LBZdqaM+fzTmQc6B+DpQMLqw7L+GE3qdEz0UC1OyRmZJq8i7AZdnq5eGx8S1jyOXXAWw1sHMFh+es6vWi4DMTW0fa6u/6+leEQ6tXrw4rVqwIy5cvj4fPq1YV/xUC969ZsyasXLky3rts2bJ49r/vs+GVz+pxLR3aSsX96Xpqz/V078bOnk+l2HO+K6SnsM1UR/b71K7v0vPZ6+pNzxVrNz2fzqlvnqnvfvdk6039KnYuxtdsW+pJdKfntZ3u2dA59ctz6kj0kg1jnWTDfdk2/J8dy/quJxlzRof6U/HMhmjLXks8TfRlr/mc+JmlMXuv64U0Zvub6ki0lXMuGVyAgJWi9495qG43f7uzDZo3qOpXAIRcQ+YPi/kVOZZqj+cnvxg3azIFXGrBxHnz5oW+ffuGF154IbRu3Tp06dIlzJgxIwqSAcgWA7RkyZIwatSo8Nprr4Vnn302vPHGG2HMmDHx+6ywEKBx48aFESNGhGHDhoXhw4eHWbNm1VW3dOnSMH78+Hjd84sXL47X1e1ez2zomDNnThQQNM6cOfO/7vUdIUrFfYsWLYq0qn/06NGx767Pnz+/7nttogE9SQAXLlwYr7s2adKkCKiEEZ82RKNr+obP+jtx4sQ6fqTnRo4cGaZMmRIWLFhQV2+iufCMHvzHt/R8OusPevRRe0mxUr+1k+4tPOOH6/qZCt7hgWuvvvpqHOu33nqrrv/ZsUa7frrXmUyl6+jQd3xr27ZteO6558Irr7xSx2PXHfqVZKWQvuz/7pk8eXLklXP2ms/6MXXq1MhPYJj4QB48i0Zyqa+JRn3WX/LpHod7Kiklg0tsdO2q0Gduv7B3l/3j/ra8DAvrrNWoJjfA85FclZT1cmS1B29KfaV4VASO8g8YMCAcfPDB4ac//Wn43ve+F7773e+GH//4x2H33XcPr7/+ehTUNAAGyqBdffXV4U9/+lP4wQ9+EL7zne/E8+9+97twxRVXRCVxvwGlME2bNg2//vWvwy9+8Yt4XHPNNVHQtG+QmzVrFn7zm9+Ef/3rXxHUHnjggfCXv/wl/PKXvww///nPN3g89NBDEQAJ9rXXXrvevdq7/PLLI/1JuCic/v7tb3+L9evD888/H+WH0mTb/f3vfx+vUQr96dOnT3xOvQceeGCd8lx11VXrtVuM5r///e9h+vTpUbn222+/2N/sffqKf3jVsmXLWDdeFyv60LNnz7DHHnus1y661KMPRx99dOjatWsETH33TIcOHWIb2Xazn9Oz7kvPANizzz471vv9738/jvUPf/jDyIe77747Anoaa/zbfvvtw69+9auw5ZZbRiPF09E2hXX/n//85+B5MqY+9/773/8OEyZMiF4ReSArWboKP+sneTnzzDPjc8cee+x69yc+GD/8bNWqVZg9e3Ycw0ceeSQYC+3+85//jPKNxlTI0QUXXBCv/+EPfwhnnHFGulTWuSxwUbMfPLtq6HXxx81somTxl19QrG+RWVnUFNwMHFKC02dHNSBWUH38l/AOHjw4DviHPvSh8K53vSu8+93vjofPH/zgB6MwderUqc6aGqRzzz03fPSjHw3vfe9713vmPe95T/jkJz8ZTjjhhDB37tw4mISTsLz//e8PW2yxRTz23HPPaBFYid69e4c//vGP4QMf+ED42te+Fq0j4PrMZz5TVz9a0rPOWTqvv/76CFSsF5AqvG+33XaLCgDIFILUsWPH8MUvfjH289Of/nS477774jVC+LnPfS7oh3o+/OEP1/WFgrC4X/jCF+I14ARkfX/iiSfWtYu2LH2Jn1/60peix8KqAjS8TX1J9zvjExooHCtbrOjDm2++GX72s5+t16621IF+/Pz2t78dnnrqqWiNPdOmTZvYp8Sj1G6i0Xh+6lOfioBqbBiGY445Jo61OtP9iU68uOOOO6K3gb/PPPNM+Na3vhXH7ctf/nK49957o2fAI7z11lvDN77xjUhbas9Zvfp7+umnR36SB7SnvmgrS2+iwdgADmC0ww47rHdPetb5fe97X/j85z8fLrvssuiBvfzyy5EvviervkdfKkAOyOIF2bjhhhvSpbLOZYOL/IifZrVZtX1OAIyfD7FDG2+hIZRfHTbIth+t6WdhzktTX4270lkx25CF8AIKg4vZBJ41YRUw3iB/5CMfCTvttFO0uARICPTVr3617n5Kw+J+5Stfid9Rjh/96EdR0FLoVAguBq9z585R0YuBC0FUB7AhGASJoDjQiF7tOe68884o3JR26623rhOypLisnjAkeV7lgIu2eAEAslRw8QyaKVei0RkdlJUyJHChWPpGSfUJwBsH55/85CeBIhQrheBC4T7xiU/ENikEGlLdrDOFESZlwQUvP/vZz65Hp3HlVfBWeWs8KACFJrKgH7wB/fO/7/FH+IA/xcCFJ5C8kdQ/feVd8HjV4zDWwLtfv34RhLTFADBiCdjch2bXgBjvTNtZcCGvZDIrN57jKfHIyAmvCo/wPhmfxGehmna1yXv3TCWlbHBZt7HT4vhGrwSqX1F09tbviAWj4tL2agCGd2K7gmELRsSX++w3K7djewLbEJhZasgyaNCg6MZisgEgKI8++mgULi4ngCFA3/zmN+PAU9AjjzwyAg6B9j1Xl1AISVimZP3OO++8utxJIbhQJqGPWL4YuAhbKAJP4sEHHwzcU6CFFnXddttt4emnn44H4aIIwoRkyQkG5QEwBFEbLLFSDrhojwK8+OKLJYOL0LJ58+bhySefrKMRrYBCf9GbwAXPt9tuu8gL4d0hhxwSeY52Y3LjjTfWgWJ23LPgYhzw5rDDDoteCr6qUx2uUSoKwzpnwcUzxgyAJF7it1wILxAoHH/88eHjH/94VDRjhu9Cn5tuuil6lur3vb4Kr4uBCw82tYsmAMOgoclzxofMOITLDIF60PTYY4/F0A+fPEseeUquyQsK+wB/Fly22WabKMOPP/54OOKIIyKIeBYo6a/6hT1AyPiSWbkrhlMoyJPRZ880adIk5uSyvC/1c9ngomLgYf3JeQMvjq8DABizR1aZ2q1egrZSgPHzIXbHP6b3ifHnYNVtjxfv2cxcNrPoy4OldrbYfcIDFpWgsXgXXnhhBARKIKH729/+NgoWS3PPPfdEBf3rX/8av6O48g4pqSbxte2220bhMXDyCixmsbDoYx/7WBAnE/hi4MLjAWQAYdq0aWGvvfaKwkAwCRJL6JqDUAAX1pbFIfCsrXvRSKieeOKJCA54UA64JIEmlKV6LltttVUYOHBgpCnR6JzyEhKNCVxYZWGH8ArPKQvwTF4XJdS3lC9KY1gILvpK4bVDyfWXJ4N+yis8Ec4mJVe/MerRo0fkR5ZOn7UnGUtRWXjKvcsuu9SFgZKyrqlfO+QGncXARZ4JSFJk7Qq7KDM6JVOFstpQFzCQoMdrdKDhrLPOCuQF+PBu0tjjpzokjrPgctRRR9UlxckwsNc2wBC+kifeiP/JCt4BOnVpkyfjfgZKvs64VFIqAhcNAYGJiyfFF/3Stpemge3Ub7GdFwytLo1As4Hf3AFC7vE+jx3ZPGsXNhs/2QHO2VoWm3Ov2zipYRe6iduFQZgJQK677rqo8Bht5kjiC5MBz8033xwFCOAYFIJy3HHHRTAy0IRIApjFTe7m2LFj/wtcCBFhVY8kX69evf4r50J5UhG67bPPPnXgsuOOO8Y603VnAsCiydOgd9ddd41hFRoJ/6WXXlo2uOgjWvEmCT0AY6nVW1/ORWg2ZMiQuvaydPqcBZcEsmZ3KBQgBt7qd8hDCGcAaLYUAxfjowCGl156KSoiXggReBx4nQUXwIb3FKpY4XEAQWPlkPBXh/rRu/fee0de68Mpp5yyQXCR5AcO+gRchIfaJWeukQVGjrcMcBKY+nzOOedEIDAOvAw8SkUdheAiVGKc8Cwl7tGPTl43edIPYac6XQNgwNfY8JJ9L6yVryLblZSKwUVjAMZbxfYm2bHj7jEHAxD8hIZ3dUwp26rASlqhjp375WUcPvtu/or5Ycj8oXHbhPMHXhx3xpfHkc8Rbl046JIILO6tRRHOcPsxU4zKwnCHCbqQiSfCwvEI5EEocbKsBEXilqUxAAYt62HsvPPOceCznguFpZza4+KKr7t37141uFBAWX3WiBCz+EAIjSzTAQccEGeU8LBUz4USsKhoZqV5IyxcrcCFovD0/vGPf6wHLhSsHHDRR1PGQla8AC4tWrQoG1yMawpH8UHY5TuK78zjAFA8w9NOO61ecAFEt99+exxz42HcyZ1x0Gd8FTICPrNxvm8IcFEHGU75FeDCSAARPGUYU2gERMmpWUOzpQDHrBbwrbRUBS7yI4Bi7KLx4bZRd8fVsQkYhEk2Rjqs59HR8/AbRC0ntIoJ2pcmvxKenvBM8DKin944rMfR8X0g4U9KEtvxzq8aelFx3S8Orm+5Ku1w4XP1gQuw4D4KheROzFxIwFYLLoQd6PBsKD1ry0UtnC0iYKmU4rkARF6TOoV48kZpBkebkpCpTudSZosk8ySVWX/T7YTfGqBagotwgbdICR2mgPE8KVviiT6k2SLgl3iZrgPBlP9ige+6664GBRc0Cb3OP//8cMkll0TeMEjFwiIeUPv27aMi8wSNvdwS70W/PMeD0Sefs0BajeeSwEVCGzgyPAAFMPJs5G146+RD6AhYrrzyygiWQBOY0oFKS1Xgkhrlwdh/xa8F2h0//dTGNu12ivmSHTvsFnb5z4bUNqG2xSPw2LXjXsE1oMLjcbZbG7B5acorcUVwQ81AJVoLz/WBiwE2TU1pKTe0J1DlgIsZJi5r1nNhEQikwfRZ+MLKVgsuYnPJXMBCeIV0vDAKSqDlYOQ1gGap4GLGjKVL+Sh5FzNlGwMX4NCtW7fIN4rlSDkk/M+GRYU5F/knM28pdNQm614KuMi5UE79485THMCo75K06MiGRfjUrl279eikzHikvWKeCzlwXX9cl2+jgOr2fTFwIUPkgAcBBHmtZqWE4OrQv/pKJeCSzbnwitNkgtBeshY9wKx///7RM8Nr3hRjxMNN3phZSO1XWhoEXDRuMHgYtoZ8aOyj8RcIm3Q5IGzTbsc4oyQx6/AbQI70vzNvx76yp/Q9I9ixzc+XAhWeUa1LfeBSrF19rBZcCLTwiqARMoJvjUk14IIuCca0LkbSz/9mPigXy+47ggYwSwUXM2dmqrjOBE7eh7XeGLhwq4UJcgnW6zjMNhFotGbBRd37779/BCMuuAQixWNNTbWaESlW9CHrubDMZkAkOyVpJcvV4eDyW7VbOBUN3IW1rHWik6cqH8G4FAMXhkaYI5w1O+cAiGm2pRi4aFfinvfEm6LMDt6gcMm1rLeS7W8l4LLvvvtG4JBv0S85N3z4+te/HleTSzwDNKDIeJAPvOCpmh73mbx4vr5FjFka6/vcYOCiAWAgl+INZeGMHd5siWAzJy8gHtHruLhLvp3yj4j7lZwVrh52XXh0/BOhw8xOMaHrDegUBlU641RfZ4t9v6nBRdzLqkq6GXDWlYBXAy6sdcr+EwygILlM+QAOQZYz0i6LWyq4yH1YPGjdB1CUmzLNKzfFI6ovocvT4YKzhvI2Du44i0mJsuACYAmytiRyAUty4YWjQLJYyYILWoAoOuWG8DIltuVdzBQBNkqV9VzwBWgmGp2Fj9aBUL5i4MJT4b1ZhcvDcuADL0Qb9YGLMdIXoIsv6OXF4CkQBljFSiXggp9WevMgecjawg+JYX1Knhke8vaMLVkkO/iB/4xfGq9idJXyXYOCS7ZBM0AxYbtyftxY20zQ8IUj4+5xZn6GLxwRwcRvQqeEr9W4mwJQsnRuanBhReQDrKr12WBKnBFqSkkwhEkGPpWN5VwABgVSF0ExBc5956nImVBgwkUBCGup4ELAeBPyA+omfEI67vWGwIUwE1DKkw6zFEK3QnCh4ATbfZ7xrIO3IbQj4MVKIbiwvikkdFaHes3iCEu165ksuCSLnWh0trjRTFd94GKNCE8TaKFXW0BpQ7NFPBceG6VGC14AX+Pied6M2Txj455sqQRc1EsO0IcHxgoY4idPBC2KsxwagHMffjjQxoOsxmtRf83AJRIfoWLdfim8Ggvw0nJ+n33nACibGlQid0OIWftis0XpevZsMKoNi1gtLziyfqbAKSxPwEKvZMXLBRdutcQngSIYPlNkMwUpmQfIxNQsV6ngYr0KgaRMyQPiXQhlNgQu+mM62noJ7/44brnllrop5aznkhQcX3h1wMaBXrmDUj0X9eg/RXdO9aDF8vWUi8mCC4UCoBLhiU48MmNFyYt5LsBFslz4oB3tAl7PAfn6PJckRxSWl+J+s0yeRwdZsOgNEGVLJeACVPABP4GsscLPgw46KIJ1AhftAFJj5Rn3OXg7cmZ4Vk2pKbhUQ9imerY+z4WlIyxWk4qpxdhi1IYCF/VRXtYyWRoKUYnnIkdAOdTFqzDtSiitsRF/AwOH1ZYUpxxwEXdb2EPiaNoAAAnxSURBVGYhFkUgsOjdELgIy4RpFFES2cEDIawEOwsuwFVIBAC8/GjqXxuEXe5G3iirDEkusp4LutDkPRs5DLM3ktH4CQCESXIxhTkXbXijHYAlOgEKr0WbxcCFDFgsKRfE49QGcBHalgIu5Ep4JgdkDQ+AAS7q0Hfylu1vJeAiTAPmPFUei/r1VQ6Lp4J3qZCdU089NRqlBC5WN6fkf7qvknMOLvWsc2G5CBHGG3SzOqxSQ4GL2J1AEiqDSkGcKwEXICKsoqjWdLCsQilJRolNwAJ4gJkZgnLAxUudwAAwJToTrfXlXMpZRIc2YQJaWXQ8lujUhpBBPiKBUlbAC8GF8qSwT99TLkE9Qhj18uayngveb2gRXTFwEW6mZKg1TTyDjYELYPWMnIyD9+J/XgO+ol09QNWrCFmPoRJwMYWMB2awTC9L5Kqf4bnooovWCzUBrlcQeKYJXIRoG0oyZ8dhQ59zcKkHXAxwtYvoik1Fp7CIkHr1nbuaBrVScLHEW26FMhJQLjsgkdBjrYCOa1aAei+mHHAZOnRotOC8AYqagAWtDQEuFBMA8gjQBcjSCl1tse4UjMXPlkJwAZ7eZ2IUjB0LDagpFcDl0eB5Q4ALWigvYCgFXLQrzPDulDHn1aGRYls7JYTRVx6GhZC+T95LJeAinPScNnjIxokMCJkBOdBMBR95pmkG0LgKg32faEj3lnvOwaVt27p8h/g8rdBlXVh5LjvXlwCwhlxfLncCBN6HwSLUBM5WCslTKLZCN4GLwTcrYVCzCluJ52IxFOtEOB1CAYKUwgsK4HuxNAtOcAi4GSR9Y9EIlCIMSetDAJRwghtPKVLeJfW9IcAFjcCF18Ka8+jkQVIbJ510UlErWgxc0vJ//fCaQkpU4rGxMz7lgAvLn12he+ihh0aAonTCiSy4bCjnAjjN1BgjSw/MnKFff7Uh5DRGxsI6E98lMK0EXNLyf3TyjtL7UYDcKwz4kAo5N3VPFhLPLT/wfQ4uiUsVni2iMoUpZqdU4n4uIffVUmz5AwNPAVk/TBeCJEBgCQgaQRGnCp8otyPt2ZJdRJfAhXCxUBSU4qeBrQRcKJXYPQloApl0RivBZd2t4wAW5YALC2hFL48o5VvQWx+4mAYVTiUBJaTpMEzZnEsWXAA0HmbBhdJmlS0N88bARdI8JcmBC6NRCC6MgHUq+pfoS2ftaJf3x+o75K+MNcUHhsYaz/XBO0H4Crx5i3hvZTB+y+kIr31nDOTHkncizJa7wVdjlG0DDdWCC89TWK9d4CKpWwq4JJ4kfldyLslzSbM5m/O5ks57hnClNSaJ+YSfNyIWTfEqZOchAJH01igFM2XKOoirLfH2AhpBJHAsiCXexcAFeBFG4YZ2qwEXs0OEh3ASJHG7FalmpCzcYi0TwMhhyD2UCy7yT+mlzERrfeDC28NXPKQc6eD1UcxNBS4SwpS2PnBhAIAmEEk0pjPlwifeifvUYwU0gwMYWHszPHjOq5VALQYulgjwXCw9AC7qAXo8QkaMd8yjVI/DlLZ2gZyCnkpfXFTHZg0ufkNo0uLJYfyiCZvlMWHxpDBt6fT4EmUlACORaIUoBQcKvBcv/B1++OFxtgJIyFdIMrLGrKsVncIOCsujAU7CI16O7wmREItHQYDqAxeWnXC7NylsOZ4L4WHBrUNhQbV78sknR2XRLqUxO4S+5GnZnwTg8dhKDYsomrokA3leidb6wIUXJXSUO2H50yEHxfJn93Mp9FwoonAstVGN55LAJU1H8zayYVHKQ2XpBIzGX46EYttfBXjgr7MwSU6DF4cXAMGYyVswGIWeS9rqQa5LX40RWSMrEq+Mk//VL7ErLwOEGxJczP5kPRd8SIUMFguLNonn4qdEm3U7NHgnaHM8bCTl5cfRi8YkfpV15nGYXTGjkKy7QTYYBIHwAAyLilhilleil2IRCAch5WIDJ/f7zoyJNSKUvz5wMYDAjaAlZSoHXFIYwZPSLiH1Lg4aCadz8rRc1waXnOdA2MsBF+47xcwCYX3goi0WGl+yh76Znma1KRU+F4ILl11YlfiRXrTTl2zZWFhkdXI23AUSheBivAvpRBMDk6ZsLUTUT31ypLH2XOonsElbKBQDFzLG80shs+fIiraSzDgLj8hWtq/Vei7yesAygYucjtAzlbcVXFpOfCqCirecN8fDT5Cc1Oe0MHzByMSvss6YS+jE5KwRkEg5E2curHg6rQ+htLwC6yNYYoKY7vcs62YwKSILBABMFRMcls7MBa9Bu66ZSRCPe9bB1ZYvYAVTAWqEgkcgqSqX40U4wCEkEwpRUgBp57JsQW9acq5+lpkHJiyyMtRzcgMPP/xwfEw4BQR8b40EYASCDsDg/ZNEKwDFO9fM6qTv0xnYZQ+5CPkHdVrcx+sDVkIBfKBUeJa2rVCPHAHFxatswR9hqOX32sAXObFUhGU8EjzXPyuLvRJhawP31kdj4of9YPBXiOK1CXxjZNJYOwu3bLsAgIRE6Df1a+bOvRLKPBHALJQC6NbipPZTXWYMyQzeZ0MiffEsj1Fb7iMf5CkVNKaQNfUpJZeNPbmVxCU7DnvQWGOTirGzjovspOfJkO89X03ZaM7Fu0G7d94nboVgO4TN7dihw67h+D6nhGELhlfEBwwkuAbBDIOQR5JWqOHdFouluPGEJzHb/RSe62yLSyGRATSz4X+Czf1PhTU2YF5YlODTFnBJysQtNZvhIIy8mSy4EDhg5i1VCkQI1UkAWCEzPGJ+7/2IsbMFzaY7PWeqlqIQThYNoAjdzBRZLKd4Xj2+pyjAgwCrBw/kc9SDVtdTMpuipz7UdzYLAZjR7Fn9ETbwMlh3beCJcdAfBzDA60JwwT9gpz/4qn+mXVMBSLwIG2jpHzDVF4olD5XqLzyrC128OwVNQAkPLU7kSRlrgM3jlTPJAgKvTD/V62yvFoCJhwBGzub++++PgErGhKloBFDqMabZ4lm0kyu0eXFU6JgKvuApMEx9MRYJHISzFoqSO/1m9LKei/vUh9Y0bowPeqstGwWXahvIn885kHOgcXIgB5fGOe55r3MO1JwDObjUnMV5AzkHGicHcnBpnOOe9zrnQM05kINLzVmcN5BzoHFyIAeXxjnuea9zDtScAzm41JzFeQM5BxonB3JwaZzjnvc650DNOZCDS81ZnDeQc6BxciAHl8Y57nmvcw7UnAM5uNScxXkDOQcaJwdycGmc4573OudAzTmQg0vNWZw3kHOgcXIgB5fGOe55r3MO1JwDObjUnMV5AzkHGicHcnBpnOOe9zrnQM05kINLzVmcN5BzoHFyIAeXxjnuea9zDtScAzm41JzFeQM5BxonB3JwaZzjnvc650DNOZCDS81ZnDeQc6BxciAHl8Y57nmvcw7UnAP/B/IJRL3qxrrEAAAAAElFTkSuQmCC;" vertex="1" parent="1">
          <mxGeometry x="250" width="139.5" height="40" as="geometry" />
        </mxCell>
        <mxCell id="CsR06TCBEqYUJZjT40zg-8" value="" style="endArrow=classic;html=1;" edge="1" parent="1">
          <mxGeometry width="50" height="50" relative="1" as="geometry">
            <mxPoint x="240" y="30" as="sourcePoint" />
            <mxPoint x="150" y="150" as="targetPoint" />
          </mxGeometry>
        </mxCell>
        <mxCell id="CsR06TCBEqYUJZjT40zg-9" value="" style="endArrow=classic;html=1;" edge="1" parent="1">
          <mxGeometry width="50" height="50" relative="1" as="geometry">
            <mxPoint x="180" y="170" as="sourcePoint" />
            <mxPoint x="240" y="170" as="targetPoint" />
          </mxGeometry>
        </mxCell>
        <mxCell id="CsR06TCBEqYUJZjT40zg-12" value="PR&amp;nbsp;" style="text;html=1;strokeColor=none;fillColor=none;align=center;verticalAlign=middle;whiteSpace=wrap;rounded=0;" vertex="1" parent="1">
          <mxGeometry x="200" y="180" width="40" height="20" as="geometry" />
        </mxCell>
        <mxCell id="CsR06TCBEqYUJZjT40zg-14" value="&amp;nbsp; &amp;nbsp; &amp;nbsp; Code Scan-&amp;nbsp; &amp;nbsp; &amp;nbsp; &amp;nbsp; &amp;nbsp; &amp;nbsp; Whit source &amp;amp; Fortify" style="rounded=0;whiteSpace=wrap;html=1;" vertex="1" parent="1">
          <mxGeometry x="230" y="250" width="120" height="60" as="geometry" />
        </mxCell>
        <mxCell id="CsR06TCBEqYUJZjT40zg-18" value="1. Base Image Centos (Principal PKI signer certificates&amp;nbsp;" style="text;html=1;strokeColor=none;fillColor=none;align=center;verticalAlign=middle;whiteSpace=wrap;rounded=0;fontStyle=1" vertex="1" parent="1">
          <mxGeometry x="60" y="10" width="180" height="20" as="geometry" />
        </mxCell>
        <mxCell id="CsR06TCBEqYUJZjT40zg-21" value="2. Custom layer post security scanning" style="text;html=1;strokeColor=none;fillColor=none;align=center;verticalAlign=middle;whiteSpace=wrap;rounded=0;fontStyle=1" vertex="1" parent="1">
          <mxGeometry x="405" y="10" width="180" height="20" as="geometry" />
        </mxCell>
        <mxCell id="CsR06TCBEqYUJZjT40zg-30" style="edgeStyle=orthogonalEdgeStyle;rounded=0;orthogonalLoop=1;jettySize=auto;html=1;" edge="1" parent="1" source="CsR06TCBEqYUJZjT40zg-22" target="CsR06TCBEqYUJZjT40zg-27">
          <mxGeometry relative="1" as="geometry" />
        </mxCell>
        <mxCell id="CsR06TCBEqYUJZjT40zg-22" value="Github" style="rounded=0;whiteSpace=wrap;html=1;" vertex="1" parent="1">
          <mxGeometry x="269.5" y="160" width="120" height="60" as="geometry" />
        </mxCell>
        <mxCell id="CsR06TCBEqYUJZjT40zg-24" value="" style="endArrow=classic;html=1;entryX=0.083;entryY=0;entryDx=0;entryDy=0;entryPerimeter=0;" edge="1" parent="1" target="CsR06TCBEqYUJZjT40zg-14">
          <mxGeometry width="50" height="50" relative="1" as="geometry">
            <mxPoint x="240" y="170" as="sourcePoint" />
            <mxPoint x="150" y="290" as="targetPoint" />
          </mxGeometry>
        </mxCell>
        <mxCell id="CsR06TCBEqYUJZjT40zg-25" value="" style="endArrow=classic;html=1;" edge="1" parent="1">
          <mxGeometry width="50" height="50" relative="1" as="geometry">
            <mxPoint x="240" y="170" as="sourcePoint" />
            <mxPoint x="270" y="170" as="targetPoint" />
          </mxGeometry>
        </mxCell>
        <mxCell id="CsR06TCBEqYUJZjT40zg-26" value="Success&amp;nbsp;" style="text;html=1;strokeColor=none;fillColor=none;align=center;verticalAlign=middle;whiteSpace=wrap;rounded=0;" vertex="1" parent="1">
          <mxGeometry x="240" y="140" width="40" height="20" as="geometry" />
        </mxCell>
        <mxCell id="CsR06TCBEqYUJZjT40zg-27" value="Custom Image" style="rounded=0;whiteSpace=wrap;html=1;" vertex="1" parent="1">
          <mxGeometry x="460" y="160" width="100" height="60" as="geometry" />
        </mxCell>
        <mxCell id="CsR06TCBEqYUJZjT40zg-28" value="" style="endArrow=classic;html=1;exitX=0.25;exitY=0;exitDx=0;exitDy=0;entryX=1;entryY=1;entryDx=0;entryDy=0;" edge="1" parent="1" source="CsR06TCBEqYUJZjT40zg-27" target="CsR06TCBEqYUJZjT40zg-2">
          <mxGeometry width="50" height="50" relative="1" as="geometry">
            <mxPoint x="440" y="140" as="sourcePoint" />
            <mxPoint x="250" y="180" as="targetPoint" />
          </mxGeometry>
        </mxCell>
        <mxCell id="CsR06TCBEqYUJZjT40zg-31" value="github actions" style="text;html=1;strokeColor=none;fillColor=none;align=center;verticalAlign=middle;whiteSpace=wrap;rounded=0;" vertex="1" parent="1">
          <mxGeometry x="405" y="200" width="45" height="10" as="geometry" />
        </mxCell>
        <mxCell id="CsR06TCBEqYUJZjT40zg-36" value="Jfrog scanner(custom image)" style="rounded=0;whiteSpace=wrap;html=1;" vertex="1" parent="1">
          <mxGeometry x="367.5" y="60" width="102.5" height="60" as="geometry" />
        </mxCell>
        <mxCell id="CsR06TCBEqYUJZjT40zg-37" value="" style="endArrow=classic;html=1;fillColor=#e1d5e7;strokeColor=#9673a6;" edge="1" parent="1">
          <mxGeometry width="50" height="50" relative="1" as="geometry">
            <mxPoint x="585" y="30" as="sourcePoint" />
            <mxPoint x="155" y="210" as="targetPoint" />
            <Array as="points">
              <mxPoint x="585" y="465" />
              <mxPoint x="515" y="465" />
              <mxPoint x="155" y="465" />
            </Array>
          </mxGeometry>
        </mxCell>
        <mxCell id="CsR06TCBEqYUJZjT40zg-38" value="Secure layer" style="text;html=1;strokeColor=none;fillColor=none;align=center;verticalAlign=middle;whiteSpace=wrap;rounded=0;fontStyle=1" vertex="1" parent="1">
          <mxGeometry x="260" y="320" width="40" height="20" as="geometry" />
        </mxCell>
      </root>
    </mxGraphModel>
  </diagram>
</mxfile>
